# Blender v2.80 (sub 75) OBJ File: ''
# www.blender.org
mtllib Ice.mtl
o Cube_Cube.001
v -5.000000 3.389716 5.000000
v -4.731809 4.668750 -4.173502
v 4.150158 5.520720 3.755176
v 4.377630 4.854826 -4.821965
v -2.981784 -1.939942 2.100735
v -3.794585 -0.074268 3.037344
v -3.944009 2.092391 4.348468
v -4.929528 4.739998 2.588436
v -4.435345 5.138258 0.065328
v -4.531389 4.522932 -2.012505
v -3.383925 2.326049 -3.753631
v -2.669361 5.025718 -4.527761
v -0.223212 5.140702 -4.665695
v 1.916500 4.559194 -4.741605
v 4.500164 1.833314 -4.306756
v 3.294063 0.301675 -2.846056
v 1.757872 -3.698267 -1.571888
v 4.672455 5.247246 -2.680747
v 4.519192 5.208743 -0.388030
v 4.565351 5.108524 2.069101
v 4.305624 2.500000 4.671510
v 2.843903 0.080551 3.433781
v 2.366472 4.887330 5.228042
v 0.000000 5.000000 5.000000
v -2.500000 5.000000 5.000000
v 2.500000 5.410161 -2.500000
v 2.500000 5.675310 0.000000
v 2.500000 5.418633 2.500000
v 0.000000 7.055811 -2.500000
v 0.000000 8.240465 0.000000
v 0.000000 6.272666 2.500000
v -2.500000 5.759636 -2.500000
v -2.500000 5.318597 0.000000
v -2.500000 6.604251 2.500000
v 0.000000 -5.000000 0.000000
v 0.641735 -2.725740 3.086045
v -0.612462 -1.819501 4.071073
v -2.127432 -2.503596 2.480148
v 0.931635 0.037200 3.447504
v -0.907861 0.007172 3.432261
v -2.497670 -0.051356 2.804492
v 2.500000 2.500000 5.000000
v 0.000000 2.500000 5.000000
v -2.500000 2.500000 5.000000
v 2.992578 -2.904331 -0.493016
v 2.487549 -3.295318 0.816657
v 1.805656 -1.866028 1.867117
v 4.255426 0.278727 0.312371
v 3.241785 0.243932 2.086859
v 4.590157 2.286114 -1.893037
v 4.487471 2.211769 0.228932
v 4.438352 2.272822 2.759212
v -1.914608 -2.500000 -3.415046
v 0.568441 -2.500000 -2.470637
v -1.619166 0.257640 -3.450811
v 0.058618 0.961343 -4.458079
v 2.460403 0.875401 -4.631468
v -1.942545 2.348317 -4.625227
v 0.204424 2.472432 -5.534974
v 2.911801 2.617153 -5.262221
v -2.983499 -2.025482 0.578374
v -2.085058 -2.421343 -1.017345
v -2.816231 0.225698 0.379569
v -2.728113 0.073775 -1.582022
v -3.679575 0.447714 -2.334580
v -4.541402 2.353924 2.317131
v -4.330225 2.302352 -0.267551
v -4.604368 2.565821 -2.663553
vt 0.625000 0.187500
vt 0.562500 0.250000
vt 0.562500 0.187500
vt 0.625000 0.437500
vt 0.562500 0.500000
vt 0.562500 0.437500
vt 0.625000 0.687500
vt 0.562500 0.750000
vt 0.562500 0.687500
vt 0.625000 0.937500
vt 0.562500 1.000000
vt 0.562500 0.937500
vt 0.875000 0.687500
vt 0.812500 0.750000
vt 0.812500 0.687500
vt 0.687500 0.687500
vt 0.625000 0.750000
vt 0.750000 0.687500
vt 0.687500 0.750000
vt 0.750000 0.750000
vt 0.687500 0.500000
vt 0.625000 0.562500
vt 0.625000 0.500000
vt 0.687500 0.562500
vt 0.625000 0.625000
vt 0.687500 0.625000
vt 0.750000 0.500000
vt 0.750000 0.562500
vt 0.750000 0.625000
vt 0.812500 0.500000
vt 0.812500 0.562500
vt 0.812500 0.625000
vt 0.875000 0.500000
vt 0.875000 0.562500
vt 0.875000 0.625000
vt 0.500000 0.937500
vt 0.437500 1.000000
vt 0.437500 0.937500
vt 0.500000 1.000000
vt 0.500000 0.750000
vt 0.437500 0.812500
vt 0.437500 0.750000
vt 0.500000 0.812500
vt 0.437500 0.875000
vt 0.500000 0.875000
vt 0.562500 0.812500
vt 0.562500 0.875000
vt 0.625000 0.812500
vt 0.625000 0.875000
vt 0.500000 0.687500
vt 0.500000 0.500000
vt 0.437500 0.562500
vt 0.437500 0.500000
vt 0.500000 0.562500
vt 0.437500 0.625000
vt 0.500000 0.625000
vt 0.437500 0.687500
vt 0.562500 0.625000
vt 0.562500 0.562500
vt 0.500000 0.437500
vt 0.437500 0.437500
vt 0.500000 0.312500
vt 0.437500 0.375000
vt 0.437500 0.312500
vt 0.562500 0.312500
vt 0.500000 0.375000
vt 0.562500 0.375000
vt 0.625000 0.250000
vt 0.625000 0.312500
vt 0.625000 0.375000
vt 0.500000 0.250000
vt 0.500000 0.187500
vt 0.500000 0.000000
vt 0.437500 0.062500
vt 0.437500 0.000000
vt 0.500000 0.062500
vt 0.437500 0.125000
vt 0.500000 0.125000
vt 0.437500 0.187500
vt 0.562500 0.000000
vt 0.562500 0.062500
vt 0.562500 0.125000
vt 0.625000 0.000000
vt 0.625000 0.062500
vt 0.625000 0.125000
vt 0.625000 1.000000
vt 0.875000 0.750000
vt 0.375000 1.000000
vt 0.375000 0.812500
vt 0.375000 0.875000
vt 0.375000 0.937500
vt 0.375000 0.562500
vt 0.375000 0.625000
vt 0.375000 0.687500
vt 0.375000 0.500000
vt 0.375000 0.375000
vt 0.437500 0.250000
vt 0.375000 0.062500
vt 0.375000 0.125000
vt 0.375000 0.187500
vn -0.6113 0.2702 -0.7438
vn 0.6139 0.4822 -0.6250
vn 0.9970 -0.0270 0.0724
vn -0.4113 0.0000 0.9115
vn -0.5307 0.7133 0.4577
vn 0.1016 0.9719 -0.2126
vn 0.3170 0.9279 0.1962
vn 0.1174 0.8850 0.4505
vn -0.1229 0.9790 -0.1625
vn 0.0766 0.9968 0.0219
vn 0.2314 0.9722 0.0353
vn 0.2276 0.8892 -0.3968
vn 0.5477 0.8320 -0.0882
vn 0.7143 0.6962 0.0715
vn -0.0723 0.7508 -0.6565
vn -0.4243 0.8183 -0.3878
vn -0.6764 0.5787 0.4555
vn -0.2143 0.9241 -0.3165
vn -0.4872 0.8600 0.1517
vn -0.0978 0.8850 -0.4551
vn -0.4992 -0.1873 0.8460
vn 0.1460 -0.6452 0.7499
vn 0.7400 -0.6146 0.2732
vn 0.5330 -0.1645 0.8300
vn -0.7431 0.1106 0.6600
vn 0.0169 -0.4634 0.8860
vn 0.0017 -0.5340 0.8455
vn -0.3203 -0.4180 0.8501
vn 0.1711 0.2941 0.9404
vn 0.0000 -0.0951 0.9955
vn 0.0000 0.0000 1.0000
vn 0.8211 -0.5428 0.1767
vn 0.7342 -0.4452 -0.5126
vn 0.8863 -0.4074 0.2202
vn 0.6531 -0.2208 0.7244
vn 0.6629 -0.7195 -0.2070
vn 0.8660 -0.0827 0.4931
vn 0.9985 0.0331 -0.0434
vn 0.9987 -0.0150 0.0478
vn 0.9998 -0.0066 0.0196
vn 0.0584 -0.5612 -0.8256
vn 0.7850 -0.3805 -0.4888
vn 0.3551 -0.0501 -0.9335
vn -0.2801 -0.5027 -0.8178
vn -0.0794 -0.5734 -0.8154
vn -0.4675 -0.4094 -0.7835
vn -0.3857 -0.0712 -0.9199
vn 0.0780 0.3201 -0.9442
vn -0.4727 -0.3331 -0.8158
vn -0.9120 -0.4094 0.0240
vn -0.8690 0.0209 -0.4944
vn -0.9633 -0.2618 -0.0599
vn -0.9347 0.1346 -0.3289
vn -0.7701 -0.6377 0.0148
vn -0.6003 -0.6799 0.4211
vn -0.7357 -0.6645 0.1308
vn -0.9854 -0.1515 -0.0775
vn -0.9929 -0.0495 0.1082
vn -0.8694 -0.4917 0.0475
vn -0.0119 -0.1685 -0.9856
vn 0.9708 0.1140 0.2112
vn 0.1976 -0.3068 0.9311
vn -0.4929 0.7652 0.4141
vn -0.1953 0.9644 0.1783
vn -0.0013 0.8912 0.4537
vn 0.0000 0.8416 0.5401
vn 0.0395 0.9307 -0.3636
vn 0.2051 0.9733 -0.1032
vn 0.1682 0.9806 0.1007
vn 0.4303 0.6537 -0.6224
vn 0.6799 0.6627 -0.3140
vn 0.2593 0.7589 0.5974
vn -0.4429 0.8543 -0.2722
vn -0.7549 0.6459 0.1139
vn 0.1171 0.8832 -0.4542
vn -0.4988 0.8604 0.1043
vn -0.0984 0.9554 -0.2784
vn -0.6086 0.7934 0.0060
vn -0.6069 -0.7572 0.2416
vn 0.1698 -0.3820 0.9084
vn -0.2272 -0.5156 0.8262
vn 0.7455 -0.6011 0.2879
vn -0.0978 -0.7913 0.6035
vn -0.2488 -0.7811 0.5728
vn 0.0101 -0.1308 0.9914
vn -0.0132 0.3282 0.9445
vn -0.3560 -0.1752 0.9179
vn 0.1443 -0.5918 0.7931
vn 0.0000 -0.5324 0.8465
vn 0.0000 -0.6523 0.7580
vn 0.6441 -0.0370 0.7641
vn -0.0959 0.0000 0.9954
vn 0.8064 -0.5665 0.1695
vn 0.8202 -0.5586 0.1233
vn 0.5680 -0.8218 -0.0453
vn 0.5707 -0.8208 -0.0250
vn 0.1090 -0.5544 0.8251
vn 0.9144 -0.2918 -0.2805
vn 0.7341 -0.5422 0.4087
vn 0.9855 -0.1697 -0.0049
vn 0.9921 -0.1172 0.0439
vn 0.8568 -0.5149 0.0291
vn 0.9903 -0.0608 -0.1252
vn 0.9978 0.0032 0.0668
vn 0.9985 -0.0498 -0.0208
vn -0.1406 -0.6796 -0.7200
vn 0.7485 -0.4443 -0.4923
vn 0.0656 -0.7152 -0.6958
vn 0.2508 -0.7087 -0.6594
vn -0.2761 -0.5088 -0.8154
vn -0.0801 -0.5052 -0.8593
vn -0.4456 -0.4899 -0.7493
vn -0.3037 -0.5333 -0.7895
vn 0.1126 -0.3640 -0.9246
vn -0.1677 -0.0096 -0.9858
vn -0.0677 0.2992 -0.9518
vn 0.0417 0.2786 -0.9595
vn -0.4732 0.0393 -0.8801
vn -0.5991 -0.5903 -0.5409
vn -0.7015 -0.7115 0.0408
vn -0.7088 -0.6655 -0.2340
vn -0.7706 -0.6364 -0.0339
vn -0.9391 0.0396 -0.3412
vn -0.9668 -0.2545 -0.0237
vn -0.6355 -0.5710 0.5197
vn -0.7142 -0.6894 0.1213
vn -0.8261 -0.5607 -0.0563
vn -0.9182 -0.3913 0.0620
vn -0.9828 -0.1472 -0.1112
vn -0.9809 -0.0136 -0.1943
vn -0.9989 0.0243 0.0390
usemtl Material.001
s off
f 10/1/1 11/2/1 68/3/1
f 14/4/2 15/5/2 60/6/2
f 20/7/3 21/8/3 52/9/3
f 25/10/4 7/11/4 44/12/4
f 8/13/5 25/14/5 34/15/5
f 28/16/6 3/17/6 20/7/6
f 31/18/7 23/19/7 28/16/7
f 34/15/8 24/20/8 31/18/8
f 14/21/9 18/22/9 4/23/9
f 26/24/10 19/25/10 18/22/10
f 27/26/11 20/7/11 19/25/11
f 13/27/12 26/24/12 14/21/12
f 29/28/13 27/26/13 26/24/13
f 30/29/14 28/16/14 27/26/14
f 12/30/15 29/28/15 13/27/15
f 32/31/16 30/29/16 29/28/16
f 33/32/17 31/18/17 30/29/17
f 2/33/18 32/31/18 12/30/18
f 10/34/19 33/32/19 32/31/19
f 9/35/20 34/15/20 33/32/20
f 41/36/21 5/37/21 38/38/21
f 44/12/22 6/39/22 41/36/22
f 22/40/23 36/41/23 47/42/23
f 39/43/24 37/44/24 36/41/24
f 40/45/25 38/38/25 37/44/25
f 21/8/26 39/43/26 22/40/26
f 42/46/27 40/45/27 39/43/27
f 43/47/28 41/36/28 40/45/28
f 3/17/29 42/46/29 21/8/29
f 23/48/30 43/47/30 42/46/30
f 24/49/31 44/12/31 43/47/31
f 52/9/32 22/40/32 49/50/32
f 16/51/33 45/52/33 17/53/33
f 48/54/34 46/55/34 45/52/34
f 48/56/35 47/57/35 46/55/35
f 15/5/36 48/54/36 16/51/36
f 51/58/37 49/50/37 48/56/37
f 4/23/38 50/59/38 15/5/38
f 18/22/39 51/58/39 50/59/39
f 19/25/40 52/9/40 51/58/40
f 57/60/41 17/53/41 54/61/41
f 60/6/42 16/51/42 57/60/42
f 55/62/43 54/63/43 53/64/43
f 58/65/44 56/66/44 55/62/44
f 59/67/45 57/60/45 56/66/45
f 2/68/46 58/65/46 11/2/46
f 12/69/47 59/67/47 58/65/47
f 13/70/48 60/6/48 59/67/48
f 68/3/49 55/71/49 65/72/49
f 6/73/50 61/74/50 5/75/50
f 63/76/51 62/77/51 61/74/51
f 64/78/52 53/79/52 62/77/52
f 7/80/53 63/76/53 6/73/53
f 66/81/54 64/78/54 63/76/54
f 67/82/55 65/72/55 64/78/55
f 1/83/56 66/81/56 7/80/56
f 8/84/57 67/82/57 66/81/57
f 9/85/58 68/3/58 67/82/58
f 10/1/59 2/68/59 11/2/59
f 14/4/60 4/23/60 15/5/60
f 20/7/61 3/17/61 21/8/61
f 25/10/62 1/86/62 7/11/62
f 8/13/63 1/87/63 25/14/63
f 28/16/64 23/19/64 3/17/64
f 31/18/65 24/20/65 23/19/65
f 34/15/66 25/14/66 24/20/66
f 14/21/67 26/24/67 18/22/67
f 26/24/68 27/26/68 19/25/68
f 27/26/69 28/16/69 20/7/69
f 13/27/70 29/28/70 26/24/70
f 29/28/71 30/29/71 27/26/71
f 30/29/72 31/18/72 28/16/72
f 12/30/73 32/31/73 29/28/73
f 32/31/74 33/32/74 30/29/74
f 33/32/75 34/15/75 31/18/75
f 2/33/76 10/34/76 32/31/76
f 10/34/77 9/35/77 33/32/77
f 9/35/78 8/13/78 34/15/78
f 38/38/79 5/37/79 35/88/79
f 41/36/80 6/39/80 5/37/80
f 44/12/81 7/11/81 6/39/81
f 47/42/82 36/41/82 35/89/82
f 36/41/83 37/44/83 35/90/83
f 37/44/84 38/38/84 35/91/84
f 22/40/85 39/43/85 36/41/85
f 39/43/86 40/45/86 37/44/86
f 40/45/87 41/36/87 38/38/87
f 21/8/88 42/46/88 39/43/88
f 42/46/89 43/47/89 40/45/89
f 43/47/90 44/12/90 41/36/90
f 3/17/91 23/48/91 42/46/91
f 23/48/92 24/49/92 43/47/92
f 24/49/31 25/10/31 44/12/31
f 49/50/93 22/40/93 47/42/93
f 52/9/94 21/8/94 22/40/94
f 17/53/95 45/52/95 35/92/95
f 45/52/96 46/55/96 35/93/96
f 46/55/97 47/57/97 35/94/97
f 16/51/98 48/54/98 45/52/98
f 48/56/99 49/50/99 47/57/99
f 15/5/100 50/59/100 48/54/100
f 50/59/101 51/58/101 48/56/101
f 51/58/102 52/9/102 49/50/102
f 4/23/103 18/22/103 50/59/103
f 18/22/104 19/25/104 51/58/104
f 19/25/105 20/7/105 52/9/105
f 54/61/106 17/53/106 35/95/106
f 57/60/107 16/51/107 17/53/107
f 60/6/108 15/5/108 16/51/108
f 53/64/109 54/63/109 35/96/109
f 55/62/110 56/66/110 54/63/110
f 56/66/111 57/60/111 54/61/111
f 11/2/112 58/65/112 55/62/112
f 58/65/113 59/67/113 56/66/113
f 59/67/114 60/6/114 57/60/114
f 2/68/115 12/69/115 58/65/115
f 12/69/116 13/70/116 59/67/116
f 13/70/117 14/4/117 60/6/117
f 65/72/118 55/71/118 53/97/118
f 68/3/119 11/2/119 55/71/119
f 5/75/120 61/74/120 35/98/120
f 61/74/121 62/77/121 35/99/121
f 62/77/122 53/79/122 35/100/122
f 6/73/123 63/76/123 61/74/123
f 63/76/124 64/78/124 62/77/124
f 64/78/125 65/72/125 53/79/125
f 7/80/126 66/81/126 63/76/126
f 66/81/127 67/82/127 64/78/127
f 67/82/128 68/3/128 65/72/128
f 1/83/129 8/84/129 66/81/129
f 8/84/130 9/85/130 67/82/130
f 9/85/131 10/1/131 68/3/131
